<?xml version="1.0" encoding="UTF-8" standalone="no"?>
<svg
   width="874.99011"
   height="479.5759"
   viewBox="0 0 874.99011 479.5759"
   fill="none"
   version="1.1"
   id="svg161"
   sodipodi:docname="illustration1.svg"
   inkscape:version="1.1 (c68e22c387, 2021-05-23)"
   xmlns:inkscape="http://www.inkscape.org/namespaces/inkscape"
   xmlns:sodipodi="http://sodipodi.sourceforge.net/DTD/sodipodi-0.dtd"
   xmlns="http://www.w3.org/2000/svg"
   xmlns:svg="http://www.w3.org/2000/svg">
  <sodipodi:namedview
     id="namedview163"
     pagecolor="#ffffff"
     bordercolor="#666666"
     borderopacity="1.0"
     inkscape:pageshadow="2"
     inkscape:pageopacity="0.0"
     inkscape:pagecheckerboard="0"
     showgrid="false"
     inkscape:zoom="0.87712665"
     inkscape:cx="372.23815"
     inkscape:cy="243.97845"
     inkscape:window-width="1366"
     inkscape:window-height="699"
     inkscape:window-x="0"
     inkscape:window-y="0"
     inkscape:window-maximized="1"
     inkscape:current-layer="g126" />
  <g
     clip-path="url(#clip0)"
     id="g126">
    <path
       opacity="0.2"
       d="M 130.356,0.0604843 C 123.416,-0.138323 116.304,0.0604776 109.795,2.06584 92.0844,7.52871 83.6896,25.4041 86.419,40.8505 c 2.7294,15.4465 13.957,28.9049 25.606,41.205 11.65,12.3001 24.272,24.4615 30.661,39.1645 3.185,7.339 4.675,15.559 1.438,22.889 -4.994,11.298 -20.053,17.608 -34.51,18.921 -14.4558,1.314 -28.9723,-1.244 -43.4802,-2.1 -6.0873,-0.354 -12.3468,-0.398 -18.0811,1.253 -6.2939,1.798 -11.5374,5.472 -16.3591,9.301 -18.8129,15.023 -33.87186,35.517 -31.435219,57.049 2.755209,24.402 27.328219,43.686 54.243219,54.032 8.9114,3.458 18.3394,6.207 26.1832,11.099 20.6642,12.905 25.3052,37.108 23.2472,58.467 -2.058,21.359 -9.0665,42.743 -5.1662,63.912 4.5892,24.626 24.9002,46.875 52.2972,57.265 24.41,9.258 54.958,8.644 76.63,-4.417 10.564,-6.379 18.554,-15.239 25.502,-24.401 10.318,-13.531 18.841,-28.349 25.357,-44.084 3.022,-7.338 5.863,-15.23 12.915,-20.33 4.305,-3.138 9.884,-4.892 15.403,-6.258 16.635,-4.114 34.156,-5.238 50.946,-8.903 16.79,-3.665 33.683,-10.52 42.809,-22.707 12.915,-17.288 6.888,-39.433 6.948,-59.764 0.104,-46.382 33.674,-87.898 46.064,-133.114 4.047,-14.772 5.554,-31.118 -3.487,-44.299 C 444.011,96.0844 433.653,89.6274 422.77,84.64 398.826,73.671 371.609,68.7873 344.841,64.0332 307.637,57.4293 262.46,56.5736 233.625,35.2061 205.952,14.6944 168.094,0.0604843 130.356,0.0604843 Z"
       fill="#6c63ff"
       id="path2" />
    <path
       d="m 819.82492,182.89076 c 0,0 -30.85,30.971 -13.432,76.93 17.418,45.959 -29.859,122.387 -29.859,122.387 0,0 0.508,-0.078 1.446,-0.242 63.361,-11.237 94.848,-83.983 59.616,-138.033 -13.096,-20.088 -23.85,-43.634 -17.771,-61.042 z"
       fill="#6c63ff"
       id="path6"
       style="fill:#800000;fill-opacity:1" />
    <path
       d="m 819.82492,182.89076 c 0,0 -17.418,37.963 0,68.934 17.418,30.971 2.988,117.893 -43.291,130.383"
       stroke="#535461"
       stroke-width="2"
       stroke-miterlimit="10"
       id="path8" />
    <path
       d="m 874.77392,308.16476 c 0,0 -35.206,-5.627 -38.409,26.044 -3.203,31.671 -67.693,36.062 -67.693,36.062 l 1.206,0.804 c 53.244,35.085 104.181,22.353 96.432,-24.203 -2.815,-17.357 -2.583,-34.756 8.464,-38.707 z"
       fill="#6c63ff"
       id="path10"
       style="fill:#ff5555" />
    <path
       d="m 874.77392,308.16476 c 0,0 -27.328,6.051 -25.081,30.962 2.247,24.912 -40.579,54.845 -81.021,31.118"
       stroke="#535461"
       stroke-width="2"
       stroke-miterlimit="10"
       id="path14" />
    <path
       d="m 797.608,362.97 h -55.311 c 1.273,-2.57 1.933,-5.402 1.929,-8.272 V 101.815 c 0,-4.9309 -1.951,-9.6601 -5.424,-13.1469 -3.474,-3.4868 -8.184,-5.4457 -13.096,-5.4457 H 297.494 c -2.433,-0.0011 -4.842,0.479 -7.09,1.4128 -2.248,0.9339 -4.291,2.3033 -6.011,4.0299 -1.721,1.7266 -3.086,3.7766 -4.017,6.033 -0.931,2.2563 -1.411,4.6747 -1.411,7.1169 v 252.892 c -0.004,2.87 0.656,5.702 1.929,8.272 h -57.265 c -1.3,0 -2.546,0.518 -3.465,1.44 -0.918,0.923 -1.435,2.174 -1.435,3.478 v 3.968 c 0.007,7.29 2.897,14.279 8.034,19.431 5.137,5.153 12.102,8.047 19.364,8.047 H 775.11 c 7.266,0 14.235,-2.898 19.373,-8.056 5.138,-5.158 8.024,-12.154 8.024,-19.448 v -3.968 c -0.004,-1.301 -0.522,-2.548 -1.441,-3.467 -0.918,-0.918 -2.161,-1.434 -3.458,-1.434 z m -340.863,15.732 -4.718,-5.403 h 117.717 l -5.253,5.411 z"
       fill="url(#paint0_linear)"
       id="path16"
       style="fill:url(#paint0_linear)" />
    <path
       d="m 718.913,86.8009 h -414.66 c -11.061,0 -20.027,9.0015 -20.027,20.1051 v 243.297 c 0,11.104 8.966,20.106 20.027,20.106 h 414.66 c 11.06,0 20.027,-9.002 20.027,-20.106 V 106.906 c 0,-11.1036 -8.967,-20.1051 -20.027,-20.1051 z"
       fill="#535461"
       id="path18" />
    <path
       d="M 728.4,128.127 H 293.792 v 231.61 H 728.4 Z"
       fill="#13243a"
       id="path20" />
    <path
       d="m 511.101,111.79 c 2.116,0 3.831,-1.722 3.831,-3.846 0,-2.125 -1.715,-3.847 -3.831,-3.847 -2.117,0 -3.832,1.722 -3.832,3.847 0,2.124 1.715,3.846 3.832,3.846 z"
       fill="#ffffff"
       id="path22" />
    <path
       d="M 578.207,360.213 563.269,375.59 H 457.968 L 444.476,360.213 H 230.138 c -1.27,0 -2.488,0.506 -3.385,1.407 -0.898,0.902 -1.402,2.124 -1.402,3.399 v 3.872 c 0,7.13 2.821,13.967 7.842,19.009 5.022,5.041 11.833,7.873 18.935,7.873 h 516.99 c 7.101,0 13.912,-2.832 18.934,-7.873 5.022,-5.042 7.843,-11.879 7.843,-19.009 v -3.872 c 0,-1.275 -0.505,-2.497 -1.402,-3.399 -0.898,-0.901 -2.116,-1.407 -3.385,-1.407 z"
       fill="#535461"
       id="path24" />
    <path
       d="M 429.133,136.269 H 245.799 c -4.453,-0.004 -8.727,1.767 -11.88,4.925 -3.153,3.157 -4.928,7.442 -4.935,11.914 v 254.991 c 0.007,4.471 1.782,8.757 4.935,11.914 3.153,3.158 7.427,4.929 11.88,4.924 h 183.334 c 4.453,0.005 8.727,-1.766 11.88,-4.924 3.153,-3.157 4.928,-7.443 4.935,-11.914 V 153.108 c -0.007,-4.472 -1.782,-8.757 -4.935,-11.914 -3.153,-3.158 -7.427,-4.929 -11.88,-4.925 z"
       fill="url(#paint1_linear)"
       id="path26"
       style="fill:url(#paint1_linear)" />
    <path
       d="M 426.145,139.727 H 248.779 c -9.511,0 -17.22,7.74 -17.22,17.287 v 248.077 c 0,9.548 7.709,17.288 17.22,17.288 h 177.366 c 9.511,0 17.221,-7.74 17.221,-17.288 V 157.014 c 0,-9.547 -7.71,-17.287 -17.221,-17.287 z"
       fill="#535461"
       id="path28" />
    <path
       d="M 432.603,166.462 H 242.321 v 229.182 h 190.282 z"
       fill="#13243a"
       id="path30" />
    <path
       d="m 336.601,155.286 c 1.427,0 2.583,-1.161 2.583,-2.594 0,-1.432 -1.156,-2.593 -2.583,-2.593 -1.426,0 -2.583,1.161 -2.583,2.593 0,1.433 1.157,2.594 2.583,2.594 z"
       fill="#ffffff"
       id="path32" />
    <path
       d="m 336.601,416.328 c 4.28,0 7.749,-3.483 7.749,-7.779 0,-4.297 -3.469,-7.78 -7.749,-7.78 -4.28,0 -7.749,3.483 -7.749,7.78 0,4.296 3.469,7.779 7.749,7.779 z"
       fill="#ffffff"
       id="path34" />
    <path
       d="m 289.392,222.707 h -94.134 c -1.222,-0.002 -2.433,0.237 -3.563,0.705 -1.13,0.467 -2.157,1.154 -3.023,2.02 -0.866,0.866 -1.554,1.895 -2.023,3.027 -0.47,1.133 -0.713,2.348 -0.715,3.575 v 206.95 c 0.002,1.227 0.245,2.441 0.715,3.574 0.469,1.133 1.157,2.162 2.023,3.028 0.866,0.866 1.893,1.552 3.023,2.02 1.13,0.467 2.341,0.707 3.563,0.704 h 94.134 c 1.222,0.003 2.433,-0.237 3.563,-0.704 1.13,-0.468 2.157,-1.154 3.023,-2.02 0.866,-0.866 1.554,-1.895 2.023,-3.028 0.47,-1.133 0.713,-2.347 0.715,-3.574 v -206.95 c -0.002,-1.227 -0.245,-2.442 -0.715,-3.575 -0.469,-1.132 -1.157,-2.161 -2.023,-3.027 -0.866,-0.866 -1.893,-1.553 -3.023,-2.02 -1.13,-0.468 -2.341,-0.707 -3.563,-0.705 z"
       fill="url(#paint2_linear)"
       id="path36"
       style="fill:url(#paint2_linear)" />
    <path
       d="m 288.385,224.436 h -92.128 c -5.231,0 -9.471,4.257 -9.471,9.508 v 203.994 c 0,5.251 4.24,9.508 9.471,9.508 h 92.128 c 5.23,0 9.471,-4.257 9.471,-9.508 V 233.944 c 0,-5.251 -4.241,-9.508 -9.471,-9.508 z"
       fill="#535461"
       id="path38" />
    <path
       d="m 289.676,245.181 h -94.71 v 181.52 h 94.71 z"
       fill="#13243a"
       id="path40" />
    <path
       d="m 231.128,235.673 c 0.476,0 0.861,-0.387 0.861,-0.865 0,-0.477 -0.385,-0.864 -0.861,-0.864 -0.475,0 -0.861,0.387 -0.861,0.864 0,0.478 0.386,0.865 0.861,0.865 z"
       fill="#ffffff"
       id="path42" />
    <path
       d="m 253.514,233.944 h -17.22 c -0.475,0 -0.861,0.387 -0.861,0.864 0,0.478 0.386,0.865 0.861,0.865 h 17.22 c 0.476,0 0.861,-0.387 0.861,-0.865 0,-0.477 -0.385,-0.864 -0.861,-0.864 z"
       fill="#ffffff"
       id="path44" />
    <path
       d="m 241.89,441.395 c 3.329,0 6.027,-2.709 6.027,-6.051 0,-3.341 -2.698,-6.05 -6.027,-6.05 -3.328,0 -6.027,2.709 -6.027,6.05 0,3.342 2.699,6.051 6.027,6.051 z"
       fill="#ffffff"
       id="path46" />
    <path
       d="m 175.412,463.523 c 0,0 -11.417,-38.897 2.144,-67.542 5.772,-11.974 7.519,-25.505 4.976,-38.56 -1.256,-6.185 -3.075,-12.24 -5.432,-18.092"
       stroke="#535461"
       stroke-width="2"
       stroke-miterlimit="10"
       id="path48" />
    <path
       d="m 185.503,321.229 c 0,4.772 -8.61,18.593 -8.61,18.593 0,0 -8.61,-13.83 -8.61,-18.593 0,-2.292 0.907,-4.491 2.522,-6.112 1.615,-1.621 3.805,-2.532 6.088,-2.532 2.284,0 4.474,0.911 6.088,2.532 1.615,1.621 2.522,3.82 2.522,6.112 z"
       fill="#6c63ff"
       id="path50"
       style="fill:#800000;fill-opacity:1" />
    <path
       d="m 199.753,347.645 c -2.583,4.002 -17.289,10.917 -17.289,10.917 0,0 0.267,-16.302 2.85,-20.304 0.587,-1.009 1.372,-1.887 2.307,-2.583 0.935,-0.695 2.001,-1.193 3.133,-1.463 1.132,-0.27 2.307,-0.308 3.454,-0.109 1.147,0.198 2.242,0.628 3.218,1.263 0.977,0.635 1.815,1.462 2.465,2.431 0.649,0.97 1.096,2.061 1.314,3.209 0.217,1.147 0.2,2.327 -0.049,3.469 -0.25,1.141 -0.727,2.219 -1.403,3.17 z"
       fill="#6c63ff"
       id="path52"
       style="fill:#800000;fill-opacity:1" />
    <path
       d="m 199.098,392.774 c -4.244,2.144 -20.414,0.665 -20.414,0.665 0,0 8.429,-13.933 12.665,-16.077 2.023,-0.918 4.321,-1.015 6.414,-0.273 2.093,0.742 3.819,2.267 4.819,4.257 1,1.989 1.195,4.29 0.546,6.421 -0.649,2.13 -2.092,3.927 -4.03,5.015 z"
       fill="#6c63ff"
       id="path54"
       style="fill:#800000;fill-opacity:1" />
    <path
       d="m 190.971,426.822 c -3.823,2.835 -20.01,4.114 -20.01,4.114 0,0 5.958,-15.161 9.781,-17.996 1.839,-1.232 4.08,-1.706 6.259,-1.325 2.178,0.382 4.126,1.59 5.441,3.375 1.315,1.784 1.896,4.009 1.622,6.211 -0.274,2.203 -1.382,4.216 -3.093,5.621 z"
       fill="#6c63ff"
       id="path56"
       style="fill:#800000;fill-opacity:1" />
    <path
       d="m 164.374,359.487 c 3.444,3.319 19.278,6.768 19.278,6.768 0,0 -3.883,-15.827 -7.293,-19.146 -0.796,-0.854 -1.757,-1.536 -2.823,-2.006 -1.067,-0.47 -2.217,-0.717 -3.382,-0.728 -1.165,-0.01 -2.32,0.217 -3.394,0.667 -1.075,0.45 -2.048,1.115 -2.86,1.954 -0.811,0.839 -1.445,1.834 -1.862,2.926 -0.417,1.091 -0.61,2.257 -0.565,3.425 0.044,1.169 0.324,2.316 0.823,3.373 0.498,1.057 1.205,2.001 2.078,2.775 z"
       fill="#6c63ff"
       id="path58"
       style="fill:#800000;fill-opacity:1" />
    <path
       d="m 155.368,399.421 c 4.245,2.144 20.415,0.665 20.415,0.665 0,0 -8.43,-13.933 -12.666,-16.077 -1.014,-0.569 -2.132,-0.927 -3.287,-1.051 -1.155,-0.124 -2.323,-0.013 -3.434,0.328 -1.111,0.342 -2.142,0.905 -3.03,1.656 -0.889,0.752 -1.617,1.676 -2.14,2.717 -0.523,1.041 -0.831,2.178 -0.905,3.342 -0.074,1.164 0.087,2.331 0.474,3.431 0.387,1.1 0.992,2.109 1.778,2.968 0.785,0.859 1.736,1.549 2.795,2.03 z"
       fill="#6c63ff"
       id="path60"
       style="fill:#800000;fill-opacity:1" />
    <path
       d="m 151.924,439.442 c 3.823,2.835 20.01,4.114 20.01,4.114 0,0 -5.958,-15.161 -9.781,-17.996 -1.84,-1.232 -4.081,-1.707 -6.259,-1.325 -2.178,0.382 -4.127,1.59 -5.442,3.375 -1.315,1.784 -1.895,4.008 -1.621,6.211 0.274,2.203 1.381,4.215 3.093,5.621 z"
       fill="#6c63ff"
       id="path62"
       style="fill:#800000;fill-opacity:1" />
    <path
       d="m 616.944,463.307 c 0,0.078 -0.052,0.173 -0.078,0.242 -0.593,1.478 -1.045,3.009 -1.351,4.573 0.206,-0.674 0.447,-1.366 0.723,-2.057 0.339,-0.89 0.576,-1.815 0.706,-2.758 z"
       fill="#dddbe2"
       id="path114" />
    <path
       d="m 535.062,468.848 c -0.456,0.121 -0.904,0.735 -1.326,1.573 l 0.138,-0.052 c 0.379,-0.104 1.025,-0.864 1.808,-1.988 -0.167,0.202 -0.379,0.362 -0.62,0.467 z"
       fill="#dddbe2"
       id="path120" />
  </g>
  <defs
     id="defs159">
    <linearGradient
       id="paint0_linear"
       x1="510.61801"
       y1="399.35999"
       x2="510.61801"
       y2="83.213799"
       gradientUnits="userSpaceOnUse">
      <stop
         stop-color="#808080"
         stop-opacity="0.25"
         id="stop128" />
      <stop
         offset="0.54"
         stop-color="#808080"
         stop-opacity="0.12"
         id="stop130" />
      <stop
         offset="1"
         stop-color="#808080"
         stop-opacity="0.1"
         id="stop132" />
    </linearGradient>
    <linearGradient
       id="paint1_linear"
       x1="103057"
       y1="183628"
       x2="103057"
       y2="87213"
       gradientUnits="userSpaceOnUse">
      <stop
         stop-color="#808080"
         stop-opacity="0.25"
         id="stop135" />
      <stop
         offset="0.54"
         stop-color="#808080"
         stop-opacity="0.12"
         id="stop137" />
      <stop
         offset="1"
         stop-color="#808080"
         stop-opacity="0.1"
         id="stop139" />
    </linearGradient>
    <linearGradient
       id="paint2_linear"
       x1="41175.699"
       y1="149719"
       x2="41175.699"
       y2="90836.203"
       gradientUnits="userSpaceOnUse">
      <stop
         stop-color="#808080"
         stop-opacity="0.25"
         id="stop142" />
      <stop
         offset="0.54"
         stop-color="#808080"
         stop-opacity="0.12"
         id="stop144" />
      <stop
         offset="1"
         stop-color="#808080"
         stop-opacity="0.1"
         id="stop146" />
    </linearGradient>
    <linearGradient
       id="paint3_linear"
       x1="333085"
       y1="193667"
       x2="333085"
       y2="106195"
       gradientUnits="userSpaceOnUse">
      <stop
         stop-color="#808080"
         stop-opacity="0.25"
         id="stop149" />
      <stop
         offset="0.54"
         stop-color="#808080"
         stop-opacity="0.12"
         id="stop151" />
      <stop
         offset="1"
         stop-color="#808080"
         stop-opacity="0.1"
         id="stop153" />
    </linearGradient>
    <clipPath
       id="clip0">
      <rect
         width="892"
         height="529"
         fill="#ffffff"
         id="rect156"
         x="0"
         y="0" />
    </clipPath>
  </defs>
</svg>
